PathFileType	4	(X/Y/Z)	S01_0003_Gait_markers.trc
DataRate	CameraRate	NumFrames	NumMarkers	Units	OrigDataRate	OrigDataStartFrame	OrigNumFrames
250.000000	250.000000	4	54	mm	250.000000	39	314
Frame#	Time	HEAD_ANT			R_HEAD			L_HEAD			C7			R_BACK			L_BACK			STERNUM			R_ACROMION			R_HUM_PROX			R_HUM_ANT			R_HUM_POST			R_ELBOW_LAT			R_ELBOW_MED			R_FOREARM			R_WIRST_LAT			R_WRITS_MED			R_HAND			L_ACROMION			L_HUM_PROX			L_HUM_ANT			L_HUM_POST			L_ELBOW_LAT			L_ELBOW_MED			L_FOREARM			L_WRIST_LAT			L_WIRST_MED			L_HAND			R_ILIAC			SACRUM			L_ILIAC			R_GTROCH			R_THIGH__1			R_THIGH_2			R_THIGH_3			R_THIGH_4			R_SHANK_1			R_SHANK_2			R_SHANK_3			R_SHANK_4			R_HEEL			R_FOOT_LAT			R_FOOT_MED			L_GTROCH			L_THIGH_1			L_THIGH_2			L_THIGH_3			L_THIGH_4			L_SHANK_1			L_SHANK_2			L_SHANK_3			L_SHANK_4			L_HEEL			L_FOOT_LAT			L_FOOT_MED			
		X1	Y1	Z1	X2	Y2	Z2	X3	Y3	Z3	X4	Y4	Z4	X5	Y5	Z5	X6	Y6	Z6	X7	Y7	Z7	X8	Y8	Z8	X9	Y9	Z9	X10	Y10	Z10	X11	Y11	Z11	X12	Y12	Z12	X13	Y13	Z13	X14	Y14	Z14	X15	Y15	Z15	X16	Y16	Z16	X17	Y17	Z17	X18	Y18	Z18	X19	Y19	Z19	X20	Y20	Z20	X21	Y21	Z21	X22	Y22	Z22	X23	Y23	Z23	X24	Y24	Z24	X25	Y25	Z25	X26	Y26	Z26	X27	Y27	Z27	X28	Y28	Z28	X29	Y29	Z29	X30	Y30	Z30	X31	Y31	Z31	X32	Y32	Z32	X33	Y33	Z33	X34	Y34	Z34	X35	Y35	Z35	X36	Y36	Z36	X37	Y37	Z37	X38	Y38	Z38	X39	Y39	Z39	X40	Y40	Z40	X41	Y41	Z41	X42	Y42	Z42	X43	Y43	Z43	X44	Y44	Z44	X45	Y45	Z45	X46	Y46	Z46	X47	Y47	Z47	X48	Y48	Z48	X49	Y49	Z49	X50	Y50	Z50	X51	Y51	Z51	X52	Y52	Z52	X53	Y53	Z53	X54	Y54	Z54	

40	0.156	431.9416809082031	287.2537536621094	1716.295288085938	370.9125671386719	212.4656982421875	1665.904418945312	373.3289489746094	359.6910705566406	1670.914794921875	229.8805847167969	300.9737548828125	1500.7490234375	153.5902557373047	245.8299560546875	1301.840698242188	167.5599822998047	384.459228515625	1306.338134765625	406.1004943847656	281.7229309082031	1337.922729492188	291.4949951171875	120.4883422851562	1447.687255859375	245.4129791259766	40.04828643798828	1282.947509765625	306.6076354980469	34.9459228515625	1197.395629882812	185.0167846679688	37.37253952026367	1199.0546875	229.9990997314453	32.58525466918945	1093.318237304688	222.1669158935547	112.3802032470703	1091.986328125	314.1893005371094	15.60574245452881	905.5465087890625	354.4108276367188	48.91946029663086	836.9013671875	279.8813781738281	24.44336700439453	818.7442016601562	340.0111999511719	-1.479243755340576	746.831298828125	329.10888671875	460.4739074707031	1456.945068359375	324.9542236328125	555.254638671875	1288.912719726562	385.137939453125	540.26318359375	1208.6962890625	270.2910461425781	586.4215087890625	1210.3447265625	328.1275024414062	583.2828369140625	1106.03955078125	271.0328979492188	533.1026611328125	1102.26416015625	448.1554260253906	544.0924072265625	943.4694213867188	488.5025634765625	488.3314514160156	894.7695922851562	442.2994689941406	541.926025390625	857.7811279296875	527.1473388671875	530.0167846679688	818.3202514648438	302.9073486328125	128.6368103027344	1057.831665039062	182.608642578125	301.8765563964844	1021.777038574219	319.4585876464844	470.9541320800781	1042.837158203125	279.229736328125	114.5237731933594	907.361328125	402.8362426757812	138.4988250732422	642.9170532226562	450.8456115722656	137.6590881347656	676.26171875	485.228271484375	177.4745635986328	581.2890625	423.908447265625	160.4078216552734	565.74560546875	449.9581604003906	155.4585266113281	344.5372009277344	503.6259155273438	179.2881622314453	328.6951599121094	504.0975646972656	197.4188995361328	244.3790588378906	442.6838989257812	177.0455017089844	244.7399139404297	404.1798400878906	261.1324462890625	39.18699645996094	568.9235229492188	180.2625579833984	20.58478355407715	619.2942504882812	282.2222595214844	33.42569351196289	264.9994506835938	478.067138671875	930.4239501953125	302.9547729492188	477.9425659179688	640.369873046875	253.18017578125	488.8534851074219	670.7698974609375	221.878662109375	468.6815185546875	570.5311279296875	285.0826721191406	464.0666809082031	561.2089233398438	92.56483459472656	466.7084350585938	344.8407592773438	36.86252975463867	466.5657653808594	369.6864318847656	-24.57519912719727	451.3697814941406	308.8106689453125	25.44479179382324	446.9266967773438	268.4965515136719	-171.8513641357422	387.3523864746094	220.7181549072266	-123.8861083984375	423.4992980957031	43.52391052246094	-99.14190673828125	324.5779724121094	44.42314147949219	
41	0.16	437.7163696289062	286.7458801269531	1716.663330078125	376.7013549804688	211.9937744140625	1666.475463867188	378.9414367675781	359.1507568359375	1671.515380859375	235.4308624267578	300.4443664550781	1501.129150390625	159.6616363525391	244.9927062988281	1302.22705078125	173.4446411132812	384.1101989746094	1307.116455078125	412.0556030273438	281.3177185058594	1338.587036132812	297.6072998046875	120.0546264648438	1448.329345703125	252.0127258300781	39.09348297119141	1283.570434570312	313.0794067382812	34.31090545654297	1198.102416992188	191.5807037353516	36.8574333190918	1199.506103515625	236.6574249267578	32.11675262451172	1094.002319335938	226.5721130371094	113.2262802124023	1092.557739257812	321.2499694824219	15.53892707824707	906.1226806640625	361.2821350097656	52.29302597045898	836.8345336914062	286.6831359863281	24.97484016418457	819.3472900390625	347.1828308105469	-1.390600204467773	747.5301513671875	334.8718872070312	459.8948059082031	1457.611206054688	330.4403991699219	554.9898071289062	1289.67724609375	390.6131286621094	540.093994140625	1209.158203125	275.6763305664062	585.7625732421875	1211.270874023438	333.3442687988281	582.8173828125	1106.7822265625	276.4424133300781	532.490478515625	1103.278198242188	452.9118957519531	544.1173706054688	943.70166015625	492.9187316894531	487.5370178222656	894.3859252929688	446.5373840332031	542.1819458007812	857.9284057617188	531.0707397460938	530.4647827148438	817.8764038085938	309.1648864746094	129.7696533203125	1058.988037109375	188.6394500732422	301.2193908691406	1022.105224609375	324.890625	470.98681640625	1043.7470703125	285.4046936035156	113.6753845214844	907.5977783203125	407.5411071777344	138.2213745117188	643.04296875	455.6874389648438	137.458740234375	675.96826171875	490.2305603027344	177.0202789306641	580.9959106445312	428.0859680175781	160.6489410400391	565.65576171875	452.4999694824219	156.1752319335938	344.514892578125	506.0769653320312	179.7751617431641	328.1772155761719	506.0284729003906	198.0043792724609	243.7825927734375	444.6403503417969	177.7457427978516	244.6517181396484	404.4367065429688	261.3601684570312	39.40784454345703	569.0843505859375	180.3166961669922	20.63415145874023	619.9320678710938	282.8179626464844	32.56924438476562	271.2477722167969	477.2807006835938	930.5697631835938	311.5000305175781	478.4513244628906	640.4423217773438	261.5332946777344	488.7532958984375	670.1116943359375	231.2011871337891	468.761962890625	569.754150390625	294.5476684570312	465.0441284179688	561.4892578125	101.6563873291016	467.5993347167969	345.4625244140625	46.50979995727539	466.9466247558594	370.9270324707031	-15.7517728805542	451.8646850585938	310.3128662109375	33.74921417236328	447.4569702148438	269.6323547363281	-163.0379943847656	388.2618408203125	225.0875091552734	-119.5317153930664	423.8332824707031	46.90555953979492	-95.60796356201172	325.2597045898438	46.95345687866211	
42	0.164	443.5445251464844	286.1646728515625	1717.449584960938	382.4677734375	211.4010467529297	1666.957885742188	384.634033203125	358.651123046875	1672.225952148438	241.1390991210938	299.9540710449219	1501.6083984375	165.7047576904297	244.2213745117188	1302.711303710938	179.3018341064453	383.7120056152344	1307.802490234375	417.9964904785156	281.0806884765625	1339.27001953125	303.7343139648438	119.511589050293	1448.993896484375	258.4114685058594	38.43359756469727	1284.20703125	319.5126037597656	33.7414436340332	1198.802368164062	198.0946807861328	36.19705581665039	1200.070068359375	243.2736511230469	31.42074394226074	1094.62158203125	234.9446716308594	111.091926574707	1093.159423828125	328.1925354003906	15.27666091918945	906.8377075195312	368.2868041992188	49.49251556396484	838.1275634765625	294.0091247558594	24.21409225463867	820.0347290039062	354.4443359375	-1.200350999832153	748.1765747070312	340.5704956054688	459.3126525878906	1458.20458984375	335.8005065917969	554.6655883789062	1290.417724609375	396.0069274902344	539.9120483398438	1209.787719726562	281.0087585449219	585.0982055664062	1211.914428710938	338.3419494628906	582.364990234375	1107.4345703125	281.5901794433594	531.941162109375	1103.91015625	457.4347534179688	544.239990234375	943.76416015625	497.3139343261719	487.7460632324219	894.1852416992188	450.8856811523438	542.5036010742188	858.1336669921875	535.06396484375	530.955810546875	817.4868774414062	315.5124206542969	129.2739410400391	1058.957885742188	194.4761047363281	300.5978088378906	1022.634338378906	330.8566284179688	470.2831115722656	1044.354614257812	289.0717163085938	113.2794570922852	907.904541015625	412.0344543457031	138.0626525878906	643.2102661132812	460.2867736816406	138.7721862792969	675.4857788085938	494.4651794433594	176.9302062988281	580.7196655273438	432.0168151855469	161.0000152587891	565.708984375	454.6753234863281	156.6964721679688	344.4502563476562	508.3597106933594	180.0030975341797	327.8025817871094	507.7334899902344	198.3038024902344	243.2341003417969	446.18212890625	178.3799438476562	244.6413879394531	404.6145324707031	261.652099609375	39.59487915039062	569.1773681640625	180.2886657714844	20.59012603759766	620.3901977539062	283.3451843261719	31.78522300720215	277.279296875	476.6056823730469	930.4901733398438	320.2681579589844	478.8815612792969	640.4966430664062	269.5838012695312	489.2982788085938	670.0228271484375	240.79248046875	469.2905883789062	569.03173828125	304.0680236816406	465.5582275390625	560.8446044921875	111.2240447998047	467.3333740234375	345.6097106933594	56.12804412841797	467.4201049804688	371.8505554199219	-6.678781032562256	452.0763549804688	312.278564453125	42.25271224975586	447.9125671386719	270.8057861328125	-153.9029998779297	388.96630859375	229.6786956787109	-114.958366394043	424.5518798828125	50.48042297363281	-91.75906372070312	325.7186584472656	49.57559585571289	
43	0.168	449.2660217285156	285.7652282714844	1718.104125976562	388.09375	210.8830261230469	1667.607788085938	390.2551879882812	358.1833801269531	1672.84814453125	246.9315185546875	299.2903747558594	1502.096801757812	171.7721710205078	243.5119323730469	1303.44970703125	185.0239410400391	383.40771484375	1308.433471679688	423.858642578125	280.8032836914062	1339.967041015625	309.8604125976562	119.0374603271484	1449.660522460938	264.8363647460938	37.79393768310547	1284.830688476562	325.9913024902344	33.19327545166016	1199.461791992188	204.4471130371094	35.64433670043945	1200.601440429688	249.9051971435547	30.93693542480469	1094.99755859375	239.3269348144531	112.0697250366211	1093.42041015625	334.988525390625	14.93994140625	907.4861450195312	375.3070373535156	52.36996078491211	838.4525756835938	301.2662048339844	24.00179100036621	820.6437377929688	361.8339538574219	-1.060196757316589	748.9659423828125	346.0048217773438	458.91845703125	1458.861450195312	341.3231506347656	554.2357788085938	1291.108642578125	401.2610473632812	539.6294555664062	1210.419189453125	286.1267700195312	584.7783203125	1212.806030273438	343.609130859375	581.8895263671875	1107.932006835938	287.0259399414062	531.3735961914062	1104.673095703125	462.1011962890625	544.3154296875	943.883544921875	501.8013916015625	487.8709411621094	893.8297729492188	455.2336730957031	542.0839233398438	858.16748046875	539.0321655273438	531.5868530273438	817.0694580078125	321.6761169433594	128.9907684326172	1059.5263671875	199.8841705322266	300.3330383300781	1023.028869628906	335.9528503417969	469.5368347167969	1045.09423828125	294.6192626953125	112.6404190063477	907.9843139648438	416.4380798339844	138.3123321533203	643.2637329101562	465.0079345703125	137.1961059570312	675.4070434570312	497.4989624023438	177.3672943115234	579.86572265625	435.8215942382812	160.8744201660156	565.5849609375	456.6614074707031	157.2328796386719	344.3427429199219	510.3177795410156	180.1655578613281	327.3406372070312	509.2081604003906	198.4479522705078	242.8145294189453	447.5736083984375	178.7921600341797	244.6437225341797	404.7741394042969	261.7882690429688	39.77312469482422	569.2694702148438	180.2265625	20.56185531616211	620.816650390625	283.833251953125	31.06293487548828	283.3977355957031	475.8670043945312	930.7500610351562	328.782470703125	479.4268493652344	640.6099853515625	278.2299194335938	488.7093505859375	669.5548706054688	250.0477600097656	469.2652587890625	568.3187866210938	313.73974609375	466.482666015625	561.3673706054688	120.6367111206055	468.2616577148438	346.1612854003906	65.89471435546875	467.8528442382812	372.9260559082031	2.384585857391357	451.9435424804688	314.2091979980469	50.85338973999023	448.310546875	272.2261047363281	-143.0314025878906	389.7655334472656	233.9817962646484	-109.895751953125	425.8661499023438	54.26660919189453	-87.35158538818359	326.5793762207031	52.31270599365234	
